<?xml version="1.0" encoding="UTF-8"?>
<svg version="1.1" xmlns="http://www.w3.org/2000/svg" width="100" height="100">
<path d="M0 0 C6.53278786 -0.02527002 13.06556321 -0.04283292 19.59838867 -0.05493164 C21.82267732 -0.05997317 24.04696263 -0.06680623 26.27124023 -0.07543945 C29.46078309 -0.08751298 32.65028229 -0.09322996 35.83984375 -0.09765625 C37.34139259 -0.10539818 37.34139259 -0.10539818 38.87327576 -0.11329651 C39.79415482 -0.11337204 40.71503387 -0.11344757 41.66381836 -0.11352539 C42.47878281 -0.115746 43.29374725 -0.11796661 44.13340759 -0.12025452 C46 0 46 0 47 1 C47.06381711 2.53588256 47.05710245 4.07477151 47.02172852 5.61157227 C47.00163223 6.59251358 46.98153595 7.5734549 46.96083069 8.5841217 C46.92027809 10.18410255 46.92027809 10.18410255 46.87890625 11.81640625 C46.84348976 13.44569313 46.84348976 13.44569313 46.80735779 15.1078949 C46.73050259 18.59288909 46.64657274 22.07767316 46.5625 25.5625 C46.50930118 27.91860935 46.45656066 30.2747291 46.40429688 32.63085938 C46.27485806 38.42070424 46.13960338 44.2103918 46 50 C44.97527588 49.96447021 43.95055176 49.92894043 42.89477539 49.89233398 C39.10619988 49.7623246 35.31743066 49.63903863 31.52856445 49.51782227 C29.88625066 49.46433041 28.24399584 49.40899569 26.60180664 49.35180664 C24.24638594 49.27009521 21.89083518 49.19493361 19.53515625 49.12109375 C18.79660904 49.09405869 18.05806183 49.06702362 17.2971344 49.03916931 C15.53214384 48.9870562 13.7657199 48.9881388 12 49 C11.505 49.495 11.505 49.495 11 50 C9.14712498 50.07226502 7.29166122 50.0838122 5.4375 50.0625 C4.42558594 50.05347656 3.41367187 50.04445312 2.37109375 50.03515625 C1.19740234 50.01775391 1.19740234 50.01775391 0 50 C-1.49918807 14.64946434 -1.49918807 14.64946434 -0.49169922 4.8046875 C-0.40008514 3.90476074 -0.30847107 3.00483398 -0.21408081 2.07763672 C-0.14343414 1.3920166 -0.07278748 0.70639648 0 0 Z M3 3 C3 3.99 3 4.98 3 6 C3.99 6 4.98 6 6 6 C5.67 5.01 5.34 4.02 5 3 C4.34 3 3.68 3 3 3 Z M41 3 C40.67 3.99 40.34 4.98 40 6 C40.99 6 41.98 6 43 6 C43 5.01 43 4.02 43 3 C42.34 3 41.68 3 41 3 Z M3 44 C3 44.99 3 45.98 3 47 C3.99 47 4.98 47 6 47 C6 46.01 6 45.02 6 44 C5.01 44 4.02 44 3 44 Z M41 44 C40.67 44.99 40.34 45.98 40 47 C40.99 47 41.98 47 43 47 C42.67 46.01 42.34 45.02 42 44 C41.67 44 41.34 44 41 44 Z " fill="#222844" transform="translate(26,24)"/>
<path d="M0 0 C6.53278786 -0.02527002 13.06556321 -0.04283292 19.59838867 -0.05493164 C21.82267732 -0.05997317 24.04696263 -0.06680623 26.27124023 -0.07543945 C29.46078309 -0.08751298 32.65028229 -0.09322996 35.83984375 -0.09765625 C37.34139259 -0.10539818 37.34139259 -0.10539818 38.87327576 -0.11329651 C39.79415482 -0.11337204 40.71503387 -0.11344757 41.66381836 -0.11352539 C42.47878281 -0.115746 43.29374725 -0.11796661 44.13340759 -0.12025452 C46 0 46 0 47 1 C47.06381711 2.53588256 47.05710245 4.07477151 47.02172852 5.61157227 C47.00163223 6.59251358 46.98153595 7.5734549 46.96083069 8.5841217 C46.92027809 10.18410255 46.92027809 10.18410255 46.87890625 11.81640625 C46.84348976 13.44569313 46.84348976 13.44569313 46.80735779 15.1078949 C46.73050259 18.59288909 46.64657274 22.07767316 46.5625 25.5625 C46.50930118 27.91860935 46.45656066 30.2747291 46.40429688 32.63085938 C46.27485806 38.42070424 46.13960338 44.2103918 46 50 C44.97527588 49.96447021 43.95055176 49.92894043 42.89477539 49.89233398 C39.10619988 49.7623246 35.31743066 49.63903863 31.52856445 49.51782227 C29.88625066 49.46433041 28.24399584 49.40899569 26.60180664 49.35180664 C24.24638594 49.27009521 21.89083518 49.19493361 19.53515625 49.12109375 C18.79660904 49.09405869 18.05806183 49.06702362 17.2971344 49.03916931 C15.53214384 48.9870562 13.7657199 48.9881388 12 49 C11.505 49.495 11.505 49.495 11 50 C9.14712498 50.07226502 7.29166122 50.0838122 5.4375 50.0625 C4.42558594 50.05347656 3.41367187 50.04445312 2.37109375 50.03515625 C1.19740234 50.01775391 1.19740234 50.01775391 0 50 C-1.49918807 14.64946434 -1.49918807 14.64946434 -0.49169922 4.8046875 C-0.40008514 3.90476074 -0.30847107 3.00483398 -0.21408081 2.07763672 C-0.14343414 1.3920166 -0.07278748 0.70639648 0 0 Z M3 3 C3 3.99 3 4.98 3 6 C3.99 6 4.98 6 6 6 C5.67 5.01 5.34 4.02 5 3 C4.34 3 3.68 3 3 3 Z M41 3 C40.67 3.99 40.34 4.98 40 6 C40.99 6 41.98 6 43 6 C43 5.01 43 4.02 43 3 C42.34 3 41.68 3 41 3 Z M1 11 C1 20.57 1 30.14 1 40 C15.52 40 30.04 40 45 40 C45 30.43 45 20.86 45 11 C30.48 11 15.96 11 1 11 Z M3 44 C3 44.99 3 45.98 3 47 C3.99 47 4.98 47 6 47 C6 46.01 6 45.02 6 44 C5.01 44 4.02 44 3 44 Z M41 44 C40.67 44.99 40.34 45.98 40 47 C40.99 47 41.98 47 43 47 C42.67 46.01 42.34 45.02 42 44 C41.67 44 41.34 44 41 44 Z " fill="#708FB2" transform="translate(26,24)"/>
<path d="M0 0 C0.66 0 1.32 0 2 0 C2 9.9 2 19.8 2 30 C16.52 30 31.04 30 46 30 C46 31.32 46 32.64 46 34 C42.535 34.495 42.535 34.495 39 35 C39.495 37.475 39.495 37.475 40 40 C39.18732666 39.96447021 38.37465332 39.92894043 37.53735352 39.89233398 C33.87927511 39.73538327 30.22091718 39.58633566 26.5625 39.4375 C25.28310547 39.38142578 24.00371094 39.32535156 22.68554688 39.26757812 C21.47060547 39.21923828 20.25566406 39.17089844 19.00390625 39.12109375 C17.87799072 39.0739624 16.7520752 39.02683105 15.59204102 38.97827148 C13.06979172 38.69649008 13.06979172 38.69649008 12 40 C10.14712498 40.07226502 8.29166122 40.0838122 6.4375 40.0625 C5.42558594 40.05347656 4.41367187 40.04445312 3.37109375 40.03515625 C2.19740234 40.01775391 2.19740234 40.01775391 1 40 C-0.19388403 11.84846857 -0.19388403 11.84846857 0 0 Z M4 34 C4 34.99 4 35.98 4 37 C4.99 37 5.98 37 7 37 C7 36.01 7 35.02 7 34 C6.01 34 5.02 34 4 34 Z " fill="#73736F" transform="translate(25,34)"/>
<path d="M0 0 C0.33 0 0.66 0 1 0 C1 7.59 1 15.18 1 23 C14.86 23 28.72 23 43 23 C43 15.74 43 8.48 43 1 C40.36 1 37.72 1 35 1 C35 0.67 35 0.34 35 0 C37.97 0 40.94 0 44 0 C44 9.57 44 19.14 44 29 C29.48 29 14.96 29 0 29 C0 19.43 0 9.86 0 0 Z " fill="#343D47" transform="translate(27,35)"/>
<path d="M0 0 C2.31 0 4.62 0 7 0 C7 2.31 7 4.62 7 7 C11.29 7 15.58 7 20 7 C20 6.34 20 5.68 20 5 C19.01 4.67 18.02 4.34 17 4 C17.66 4 18.32 4 19 4 C19 2.68 19 1.36 19 0 C23.29 0 27.58 0 32 0 C32 2.31 32 4.62 32 7 C33.98 7 35.96 7 38 7 C38 7.99 38 8.98 38 10 C23.48 10 8.96 10 -6 10 C-6.33 8.68 -6.66 7.36 -7 6 C-4.69 6 -2.38 6 0 6 C0 4.02 0 2.04 0 0 Z " fill="#376EB3" transform="translate(33,25)"/>
<path d="M0 0 C0.33 0 0.66 0 1 0 C1 7.59 1 15.18 1 23 C14.86 23 28.72 23 43 23 C43 15.74 43 8.48 43 1 C40.36 1 37.72 1 35 1 C35 0.67 35 0.34 35 0 C37.97 0 40.94 0 44 0 C44 9.57 44 19.14 44 29 C40.37 29 36.74 29 33 29 C33 28.67 33 28.34 33 28 C36.3 28 39.6 28 43 28 C43 26.68 43 25.36 43 24 C29.8 24.33 16.6 24.66 3 25 C3 25.66 3 26.32 3 27 C15.87 27.495 15.87 27.495 29 28 C29 28.33 29 28.66 29 29 C19.43 29 9.86 29 0 29 C0 19.43 0 9.86 0 0 Z " fill="#424E60" transform="translate(27,35)"/>
<path d="M0 0 C0.66 0 1.32 0 2 0 C2 9.9 2 19.8 2 30 C11.9 30 21.8 30 32 30 C31.67 30.99 31.34 31.98 31 33 C25.57005572 34.80998143 20.70658818 35.49194726 15 35 C14.34 34.01 13.68 33.02 13 32 C10.3443272 31.41651248 10.3443272 31.41651248 7.375 31.3125 C6.37210938 31.24675781 5.36921875 31.18101563 4.3359375 31.11328125 C3.56507812 31.07589844 2.79421875 31.03851563 2 31 C2.33 31.66 2.66 32.32 3 33 C4.65 33 6.3 33 8 33 C8.38218767 34.65614657 8.71395102 36.32457024 9 38 C8 39 8 39 5.5625 39.1875 C3 39 3 39 1 37 C0.68115234 34.88378906 0.68115234 34.88378906 0.5859375 32.265625 C0.54718506 31.30470947 0.50843262 30.34379395 0.46850586 29.35375977 C0.43764893 28.32951904 0.40679199 27.30527832 0.375 26.25 C0.33705322 25.21480225 0.29910645 24.17960449 0.26000977 23.11303711 C-0.00484994 15.4068809 -0.12026786 7.71050596 0 0 Z M4 34 C4 34.99 4 35.98 4 37 C4.99 37 5.98 37 7 37 C7 36.01 7 35.02 7 34 C6.01 34 5.02 34 4 34 Z " fill="#838F99" transform="translate(25,34)"/>
<path d="M0 0 C2.68756955 -0.02720824 5.37485798 -0.0469388 8.0625 -0.0625 C8.81466797 -0.07087891 9.56683594 -0.07925781 10.34179688 -0.08789062 C15.00633118 -0.10808341 19.39923173 0.22404041 24 1 C24 2.65 24 4.3 24 6 C24.99 6 25.98 6 27 6 C27 6.66 27 7.32 27 8 C22.71 8 18.42 8 14 8 C14 5.69 14 3.38 14 1 C11.69 1 9.38 1 7 1 C7.185625 1.969375 7.37125 2.93875 7.5625 3.9375 C7.706875 4.948125 7.85125 5.95875 8 7 C7.67 7.33 7.34 7.66 7 8 C4.66055264 7.71269945 2.3260857 7.38063221 0 7 C0 4.69 0 2.38 0 0 Z M3 3 C3 3.99 3 4.98 3 6 C3.99 6 4.98 6 6 6 C5.67 5.01 5.34 4.02 5 3 C4.34 3 3.68 3 3 3 Z " fill="#4573A5" transform="translate(26,24)"/>
<path d="M0 0 C3.63 0 7.26 0 11 0 C11 1.32 11 2.64 11 4 C8.69 4.33 6.38 4.66 4 5 C4.33 6.65 4.66 8.3 5 10 C3.68 10 2.36 10 1 10 C0.67 6.7 0.34 3.4 0 0 Z " fill="#5E8AB8" transform="translate(60,64)"/>
<path d="M0 0 C3.63 0 7.26 0 11 0 C10.67 2.97 10.34 5.94 10 9 C6.37 9 2.74 9 -1 9 C-0.67 8.01 -0.34 7.02 0 6 C0.33 6.33 0.66 6.66 1 7 C2.66617115 7.04063832 4.33388095 7.042721 6 7 C6 5.68 6 4.36 6 3 C4.02 3 2.04 3 0 3 C0 2.01 0 1.02 0 0 Z " fill="#3B759F" transform="translate(27,65)"/>
<path d="M0 0 C4.29 0 8.58 0 13 0 C13.12375 1.670625 13.12375 1.670625 13.25 3.375 C13.57873787 7.05753944 13.57873787 7.05753944 16.0625 8.4375 C16.701875 8.623125 17.34125 8.80875 18 9 C15.69 9 13.38 9 11 9 C10.67 7.02 10.34 5.04 10 3 C9.01 3 8.02 3 7 3 C6.34 3.66 5.68 4.32 5 5 C5 3.68 5 2.36 5 1 C4.34 1 3.68 1 3 1 C3 2.32 3 3.64 3 5 C1.35 5 -0.3 5 -2 5 C-1.34 4.67 -0.68 4.34 0 4 C0 2.68 0 1.36 0 0 Z " fill="#1B5DAF" transform="translate(52,25)"/>
<path d="M0 0 C2.875 -0.1875 2.875 -0.1875 6 0 C8 3 8 3 7.625 5.6875 C7.41875 6.450625 7.2125 7.21375 7 8 C4.69 7.67 2.38 7.34 0 7 C0 4.69 0 2.38 0 0 Z M3 3 C3 3.99 3 4.98 3 6 C3.99 6 4.98 6 6 6 C5.67 5.01 5.34 4.02 5 3 C4.34 3 3.68 3 3 3 Z " fill="#8E9FA8" transform="translate(26,24)"/>
<path d="M0 0 C0.66 0 1.32 0 2 0 C2.33 0.66 2.66 1.32 3 2 C3.639375 1.814375 4.27875 1.62875 4.9375 1.4375 C5.9584375 1.2209375 5.9584375 1.2209375 7 1 C8 2 8 2 8.0625 4.5625 C8.041875 5.366875 8.02125 6.17125 8 7 C5.36 7 2.72 7 0 7 C-1.33332095 4.3333581 -0.67102033 2.83319697 0 0 Z " fill="#3075D1" transform="translate(55,26)"/>
<path d="M0 0 C0.33 0 0.66 0 1 0 C1 4.29 1 8.58 1 13 C-1.31 13 -3.62 13 -6 13 C-6.33 11.35 -6.66 9.7 -7 8 C-6.34 8 -5.68 8 -5 8 C-5 8.66 -5 9.32 -5 10 C-4.01 10 -3.02 10 -2 10 C-2 9.01 -2 8.02 -2 7 C-1.34 7 -0.68 7 0 7 C0 4.69 0 2.38 0 0 Z " fill="#8CA5B1" transform="translate(71,61)"/>
<path d="M0 0 C0.66 0 1.32 0 2 0 C2.66 0.99 3.32 1.98 4 3 C4.99 3.33 5.98 3.66 7 4 C7 4.66 7 5.32 7 6 C2.71 6 -1.58 6 -6 6 C-6 5.34 -6 4.68 -6 4 C-4.02 3.67 -2.04 3.34 0 3 C0 2.01 0 1.02 0 0 Z " fill="#5E93CC" transform="translate(46,26)"/>
<path d="M0 0 C3.96 0 7.92 0 12 0 C11.67 1.32 11.34 2.64 11 4 C4.25 4.125 4.25 4.125 2 3 C2 2.34 2 1.68 2 1 C1.34 0.67 0.68 0.34 0 0 Z " fill="#2E3640" transform="translate(28,59)"/>
<path d="M0 0 C0.66 0 1.32 0 2 0 C2.33 1.98 2.66 3.96 3 6 C7.29 6 11.58 6 16 6 C16 6.33 16 6.66 16 7 C10.06 7 4.12 7 -2 7 C-1.34 4.69 -0.68 2.38 0 0 Z " fill="#1156B4" transform="translate(36,26)"/>
<path d="M0 0 C1.65 0 3.3 0 5 0 C5 2.97 5 5.94 5 9 C3.68 9 2.36 9 1 9 C0.67 6.03 0.34 3.06 0 0 Z " fill="#2A6EA5" transform="translate(60,65)"/>
<path d="M0 0 C0.38218767 1.65614657 0.71395102 3.32457024 1 5 C0 6 0 6 -2.4375 6.1875 C-5 6 -5 6 -7 4 C-7 3.01 -7 2.02 -7 1 C-4.53721199 -0.231394 -2.7204945 -0.07159196 0 0 Z M-4 1 C-4 1.99 -4 2.98 -4 4 C-3.01 4 -2.02 4 -1 4 C-1 3.01 -1 2.02 -1 1 C-1.99 1 -2.98 1 -4 1 Z " fill="#9CB4C9" transform="translate(33,67)"/>
<path d="M0 0 C0.66 0.66 1.32 1.32 2 2 C4.89967757 2.30675232 7.71783178 2.51173371 10.625 2.625 C11.42679688 2.66367188 12.22859375 2.70234375 13.0546875 2.7421875 C15.03607556 2.83653931 17.01800645 2.91936215 19 3 C19 3.33 19 3.66 19 4 C13.06 4 7.12 4 1 4 C1 4.66 1 5.32 1 6 C0.34 6 -0.32 6 -1 6 C-0.67 4.02 -0.34 2.04 0 0 Z " fill="#939C9A" transform="translate(38,66)"/>
<path d="M0 0 C1.98 0 3.96 0 6 0 C6.33 0.99 6.66 1.98 7 3 C6.34 3.66 5.68 4.32 5 5 C5 3.68 5 2.36 5 1 C4.34 1 3.68 1 3 1 C3 2.32 3 3.64 3 5 C1.35 5 -0.3 5 -2 5 C-1.34 4.67 -0.68 4.34 0 4 C0 2.68 0 1.36 0 0 Z " fill="#225798" transform="translate(52,25)"/>
<path d="M0 0 C0.99 0 1.98 0 3 0 C2.67 1.65 2.34 3.3 2 5 C-0.31 4.67 -2.62 4.34 -5 4 C-4.34 3.67 -3.68 3.34 -3 3 C-2.67 2.34 -2.34 1.68 -2 1 C-2 1.66 -2 2.32 -2 3 C-1.01 3 -0.02 3 1 3 C0.67 2.01 0.34 1.02 0 0 Z " fill="#9AB0D2" transform="translate(31,27)"/>
<path d="M0 0 C0.33 0 0.66 0 1 0 C1 3.63 1 7.26 1 11 C0.67 11 0.34 11 0 11 C-0.12375 10.195625 -0.2475 9.39125 -0.375 8.5625 C-0.684375 7.2940625 -0.684375 7.2940625 -1 6 C-1.66 5.67 -2.32 5.34 -3 5 C-3 4.01 -3 3.02 -3 2 C-2.01 2 -1.02 2 0 2 C0 1.34 0 0.68 0 0 Z " fill="#C1CFC9" transform="translate(72,25)"/>
<path d="M0 0 C1.98 0 3.96 0 6 0 C6 0.99 6 1.98 6 3 C4.02 3.33 2.04 3.66 0 4 C0 2.68 0 1.36 0 0 Z " fill="#8B9DA5" transform="translate(66,24)"/>
<path d="M0 0 C0.33 1.32 0.66 2.64 1 4 C-0.65 4.33 -2.3 4.66 -4 5 C-4.33 3.68 -4.66 2.36 -5 1 C-4.34 1 -3.68 1 -3 1 C-3 1.66 -3 2.32 -3 3 C-2.01 3 -1.02 3 0 3 C0 2.01 0 1.02 0 0 Z " fill="#B8CCD7" transform="translate(69,68)"/>
<path d="M0 0 C0.66 0 1.32 0 2 0 C2.33 1.65 2.66 3.3 3 5 C1.68 5.33 0.36 5.66 -1 6 C-0.67 4.02 -0.34 2.04 0 0 Z " fill="#095FCF" transform="translate(36,26)"/>
</svg>
